# xmcd
#
# Track frame offsets: 
#        150
#        20425
#        37219
#        52760
#        71893
#        92722
#        109815
#        127462
#        139224
#        157869
#        178875
#        198470
#        217907
#        232797
#        247855
#
# Disc length: 3456 seconds
#
# Revision: 3
# Processed by: cddbd v1.5.2PL0 Copyright (c) Steve Scherf et al.
# Submitted via: ExactAudioCopyFreeDBPlugin 1.0
#
DISCID=d40d7e0f
DTITLE=Александр Новиков - Золотая Коллекция Cd2
DYEAR=1996
DGENRE=Chanson
TTITLE0=Шансоньетка
TTITLE1=Уличная Красотка
TTITLE2=Белый Голубь
TTITLE3=Золотая Рыба
TTITLE4=Женщина Ушла
TTITLE5=Безработный Музыкант
TTITLE6=Девочка-Иголка
TTITLE7=С Красавицей В Обнимку
TTITLE8=Когда Мне Было 20 Лет
TTITLE9=Танцуйте, Девочки!...
TTITLE10=Она - Не Моя...
TTITLE11=Это Не Лето...
TTITLE12=Медсестричка
TTITLE13=Я Вышел Из Лагеря
TTITLE14=Вези Меня, Извозчик...(Интродукция)
EXTD=YEAR: 1996 ID3G: 102
EXTT0=
EXTT1=
EXTT2=
EXTT3=
EXTT4=
EXTT5=
EXTT6=
EXTT7=
EXTT8=
EXTT9=
EXTT10=
EXTT11=
EXTT12=
EXTT13=
EXTT14=
PLAYORDER=
